<?xml version="1.0" encoding="UTF-8"?>
<svg xmlns="http://www.w3.org/2000/svg" id="Capa_1" data-name="Capa 1" viewBox="0 0 690 68" style="background: transparent;"><defs><style>.cls-1{fill:#041b3f;}.cls-2{fill:#ff433a;}</style></defs><title>gomez_moreno_logo</title><path class="cls-1" d="M78.07,34.14C78.07,15,89.9,2,108.23,2c14,0,24.56,8.13,26.73,21.13h-8.4c-2.17-8.76-8.94-13.91-18.51-13.91-13.28,0-21.94,10.3-21.94,24.93s8.67,24.92,21.76,24.92c11.65,0,20-7,20-18.15V38.75H109V31.52H135.6V65.74h-6.77l-.54-9.21c-2.89,4.61-9.66,9.76-20.5,9.76-17.52,0-29.71-13-29.71-32.15"/><path class="cls-1" d="M144.64,42.71c0-14,9.39-23.57,22.84-23.57s22.85,9.57,22.85,23.57-9.39,23.57-22.85,23.57-22.84-9.57-22.84-23.57m38.11,0c0-9.84-6.14-17-15.27-17s-15.26,7.13-15.26,17,6.14,17,15.26,17,15.27-7.14,15.27-17m-18-28.53L172.46,2h8.67l-10.56,12.2Z"/><path class="cls-1" d="M267,39.19V65.74h-7.4V39.65c0-9-4-13.73-10.93-13.73-7.68,0-12.37,5.78-12.37,15.17V65.74h-7.41V39.65c0-9-4.06-13.73-11.1-13.73-7.59,0-12.19,6.32-12.19,15.53V65.74h-7.41V19.69h6.41l1,6.32a15.61,15.61,0,0,1,13.45-6.86c6.41,0,11.92,2.89,14.54,8.76,2.8-5,7.77-8.76,16-8.76,9.57,0,17.43,5.51,17.43,20"/><path class="cls-1" d="M274.42,42.71c0-14,8.85-23.57,21.85-23.57S317.76,27.36,318.12,41c0,1-.09,2.08-.18,3.16H282.19v.64c.27,8.76,5.78,14.9,14.54,14.9,6.5,0,11.56-3.43,13.09-9.39h7.5c-1.81,9.21-9.39,16-20,16-13.82,0-22.85-9.48-22.85-23.57M310.18,38c-.72-7.95-6.14-12.37-13.82-12.37A13.64,13.64,0,0,0,282.63,38Z"/><polygon class="cls-1" points="322.21 19.69 358.88 19.69 358.88 25.29 330.88 58.97 360.05 58.97 360.05 65.74 321.04 65.74 321.04 60.15 348.94 26.46 322.21 26.46 322.21 19.69"/><polygon class="cls-1" points="390.02 2.53 399.95 2.53 422.35 55 444.47 2.53 454.23 2.53 454.23 65.75 446.55 65.75 446.55 15.9 425.6 65.75 418.65 65.75 397.7 15.9 397.7 65.75 390.02 65.75 390.02 2.53"/><path class="cls-1" d="M463.47,42.71c0-14,9.39-23.57,22.85-23.57s22.85,9.57,22.85,23.57-9.39,23.57-22.85,23.57-22.85-9.57-22.85-23.57m38.11,0c0-9.84-6.14-17-15.26-17s-15.26,7.13-15.26,17,6.14,17,15.26,17,15.26-7.14,15.26-17"/><path class="cls-1" d="M540.45,19.69v7.22h-3.7c-9.66,0-12.28,8-12.28,15.35V65.74h-7.4V19.69h6.41l1,7c2.17-3.53,5.69-7,13.91-7Z"/><path class="cls-1" d="M543.14,42.71c0-14,8.85-23.57,21.85-23.57S586.49,27.36,586.85,41c0,1-.09,2.08-.18,3.16H550.91v.64c.27,8.76,5.78,14.9,14.54,14.9,6.5,0,11.56-3.43,13.09-9.39H586c-1.81,9.21-9.39,16-20,16-13.82,0-22.85-9.48-22.85-23.57M578.9,38c-.72-7.95-6.14-12.37-13.82-12.37A13.64,13.64,0,0,0,551.36,38Z"/><path class="cls-1" d="M635.93,40.09V65.74h-7.4V40.55c0-9.57-4.43-14.63-12.46-14.63-8.67,0-13.91,6.41-13.91,16.8v23h-7.4V19.69h6.41l1,6.23c2.71-3.52,7.41-6.77,15.17-6.77,10.39,0,18.6,5.68,18.6,20.95"/><path class="cls-1" d="M643.2,42.71c0-14,9.39-23.57,22.85-23.57s22.85,9.57,22.85,23.57S679.5,66.29,666,66.29,643.2,56.71,643.2,42.71m38.11,0c0-9.84-6.14-17-15.26-17s-15.26,7.13-15.26,17,6.14,17,15.26,17,15.26-7.14,15.26-17"/><polygon class="cls-2" points="11.29 33.86 0.89 65.47 8.2 65.47 18.6 33.86 11.29 33.86"/><polygon class="cls-2" points="50.75 33.86 61.34 1.71 54.02 1.71 43.44 33.86 50.75 33.86"/><polygon class="cls-2" points="36.13 33.86 25.73 65.47 33.04 65.47 43.44 33.86 36.13 33.86"/><polygon class="cls-2" points="36.5 1.71 29.18 1.71 18.6 33.86 25.92 33.86 36.5 1.71"/></svg>